<svg width="40" height="41" viewBox="0 0 40 41" fill="none" xmlns="http://www.w3.org/2000/svg">
<path d="M29.032 0.00699916C28.9672 0.019466 28.9031 0.0354902 28.84 0.0549992C28.4934 0.133168 28.1846 0.32884 27.9658 0.608811C27.7471 0.888782 27.632 1.23581 27.64 1.591V12.337C27.6348 12.5419 27.6706 12.7459 27.7454 12.9367C27.8202 13.1276 27.9325 13.3016 28.0756 13.4484C28.2187 13.5952 28.3898 13.7118 28.5787 13.7915C28.7676 13.8711 28.9705 13.9122 29.1755 13.9122C29.3805 13.9122 29.5834 13.8711 29.7723 13.7915C29.9612 13.7118 30.1323 13.5952 30.2754 13.4484C30.4185 13.3016 30.5308 13.1276 30.6056 12.9367C30.6804 12.7459 30.7162 12.5419 30.711 12.337V1.591C30.7186 1.37272 30.6796 1.15532 30.5966 0.953284C30.5136 0.751252 30.3885 0.56923 30.2297 0.419347C30.0708 0.269464 29.8818 0.155162 29.6753 0.08406C29.4688 0.0129576 29.2495 -0.0133129 29.032 0.00699916ZM33.639 0.00699916C33.5742 0.019466 33.5101 0.0354902 33.447 0.0549992C33.1004 0.133168 32.7916 0.32884 32.5728 0.608811C32.3541 0.888782 32.239 1.23581 32.247 1.591V12.337C32.2418 12.5419 32.2776 12.7459 32.3524 12.9367C32.4272 13.1276 32.5395 13.3016 32.6826 13.4484C32.8257 13.5952 32.9968 13.7118 33.1857 13.7915C33.3746 13.8711 33.5775 13.9122 33.7825 13.9122C33.9875 13.9122 34.1904 13.8711 34.3793 13.7915C34.5682 13.7118 34.7393 13.5952 34.8824 13.4484C35.0255 13.3016 35.1378 13.1276 35.2126 12.9367C35.2874 12.7459 35.3232 12.5419 35.318 12.337V1.591C35.3256 1.37262 35.2866 1.15513 35.2036 0.953022C35.1205 0.750915 34.9953 0.568839 34.8363 0.418939C34.6774 0.26904 34.4882 0.154762 34.2816 0.0837278C34.075 0.0126936 33.8565 -0.0134642 33.639 0.00699916ZM38.246 0.00699916C38.1812 0.019466 38.1171 0.0354902 38.054 0.0549992C37.7074 0.133168 37.3986 0.32884 37.1798 0.608811C36.9611 0.888782 36.846 1.23581 36.854 1.591V15.411C36.8572 15.8152 36.7799 16.216 36.6267 16.59C36.4735 16.964 36.2475 17.3038 35.9617 17.5896C35.6758 17.8755 35.336 18.1015 34.962 18.2547C34.588 18.4079 34.1872 18.4852 33.783 18.482C33.3759 18.4828 32.9856 18.6449 32.6978 18.9328C32.4099 19.2206 32.2478 19.6109 32.247 20.018V38.444C32.2418 38.6489 32.2776 38.8529 32.3524 39.0437C32.4272 39.2346 32.5395 39.4086 32.6826 39.5554C32.8257 39.7022 32.9968 39.8188 33.1857 39.8985C33.3746 39.9781 33.5775 40.0192 33.7825 40.0192C33.9875 40.0192 34.1904 39.9781 34.3793 39.8985C34.5682 39.8188 34.7393 39.7022 34.8824 39.5554C35.0255 39.4086 35.1378 39.2346 35.2126 39.0437C35.2874 38.8529 35.3232 38.6489 35.318 38.444V21.265C36.6252 20.9361 37.7865 20.1832 38.6201 19.1239C39.4537 18.0646 39.9126 16.7589 39.925 15.411V1.591C39.9326 1.37262 39.8936 1.15513 39.8106 0.953022C39.7275 0.750915 39.6023 0.568839 39.4433 0.418939C39.2844 0.26904 39.0952 0.154762 38.8886 0.0837278C38.682 0.0126936 38.4635 -0.0134642 38.246 0.00699916ZM1.246 0.0549992C0.890756 0.123279 0.571042 0.314827 0.343259 0.595851C0.115476 0.876875 -0.00573914 1.22932 0.000998938 1.591V14.643C0.0218086 17.4121 0.926914 20.1021 2.58427 22.3205C4.24162 24.539 6.56449 26.1698 9.214 26.975V33.837C9.26889 34.2573 9.20857 34.6847 9.03949 35.0734C8.87041 35.4621 8.59891 35.7976 8.254 36.044C7.15302 36.6925 5.88192 36.9937 4.607 36.908C4.40206 36.9028 4.19814 36.9386 4.00727 37.0134C3.8164 37.0882 3.64244 37.2005 3.49564 37.3436C3.34884 37.4867 3.23217 37.6578 3.15251 37.8467C3.07285 38.0356 3.03181 38.2385 3.03181 38.4435C3.03181 38.6485 3.07285 38.8514 3.15251 39.0403C3.23217 39.2292 3.34884 39.4003 3.49564 39.5434C3.64244 39.6865 3.8164 39.7988 4.00727 39.8736C4.19814 39.9484 4.40206 39.9842 4.607 39.979C6.53726 40.0948 8.45398 39.5903 10.077 38.539C10.788 37.9839 11.3584 37.2691 11.7418 36.4526C12.1252 35.636 12.311 34.7407 12.284 33.839V25.92C12.2776 25.5673 12.1502 25.2276 11.9232 24.9576C11.6962 24.6877 11.3833 24.5039 11.037 24.437C8.78243 23.9755 6.75709 22.7479 5.30498 20.9626C3.85287 19.1772 3.06352 16.9443 3.071 14.643V3.126H23.033V14.643C23.0405 16.9442 22.2513 19.177 20.7994 20.9623C19.3475 22.7476 17.3224 23.9753 15.068 24.437C14.7207 24.5038 14.407 24.6883 14.1797 24.9593C13.9524 25.2303 13.8253 25.5713 13.82 25.925V33.837C13.793 34.7387 13.9788 35.634 14.3622 36.4506C14.7456 37.2671 15.316 37.9819 16.027 38.537C17.65 39.5883 19.5667 40.0928 21.497 39.977C21.7019 39.9822 21.9059 39.9464 22.0967 39.8716C22.2876 39.7968 22.4616 39.6845 22.6084 39.5414C22.7552 39.3983 22.8718 39.2272 22.9515 39.0383C23.0311 38.8494 23.0722 38.6465 23.0722 38.4415C23.0722 38.2365 23.0311 38.0336 22.9515 37.8447C22.8718 37.6558 22.7552 37.4847 22.6084 37.3416C22.4616 37.1985 22.2876 37.0862 22.0967 37.0114C21.9059 36.9366 21.7019 36.9008 21.497 36.906C20.2221 36.9917 18.951 36.6905 17.85 36.042C17.5051 35.7956 17.2336 35.4601 17.0645 35.0714C16.8954 34.6827 16.8351 34.2553 16.89 33.835V26.975C19.5391 26.1694 21.8616 24.5385 23.5185 22.32C25.1755 20.1016 26.0803 17.4118 26.101 14.643V1.591C26.1002 1.18456 25.9387 0.794936 25.6517 0.507166C25.3646 0.219395 24.9754 0.0568471 24.569 0.0549992H1.248H1.246Z" fill="#F93481"/>
</svg>
