<svg width="17" height="17" viewBox="0 0 17 17" fill="none" xmlns="http://www.w3.org/2000/svg">
<path d="M8.5 0C6.81886 0 5.17547 0.498516 3.77766 1.43251C2.37984 2.3665 1.29037 3.69402 0.647028 5.24719C0.00368291 6.80036 -0.164645 8.50943 0.163329 10.1583C0.491303 11.8071 1.30085 13.3217 2.4896 14.5104C3.67834 15.6992 5.1929 16.5087 6.84174 16.8367C8.49057 17.1646 10.1996 16.9963 11.7528 16.353C13.306 15.7096 14.6335 14.6202 15.5675 13.2223C16.5015 11.8245 17 10.1811 17 8.5C16.9974 6.24647 16.101 4.086 14.5075 2.49252C12.914 0.899029 10.7535 0.00264654 8.5 0ZM8.5 15.937C7.0291 15.937 5.59124 15.5008 4.36823 14.6836C3.14522 13.8665 2.192 12.705 1.62911 11.346C1.06622 9.98708 0.918945 8.49175 1.2059 7.04911C1.49286 5.60648 2.20117 4.28133 3.24125 3.24125C4.28133 2.20116 5.60648 1.49286 7.04912 1.2059C8.49175 0.918942 9.98709 1.06622 11.346 1.62911C12.705 2.192 13.8665 3.14522 14.6836 4.36822C15.5008 5.59123 15.937 7.0291 15.937 8.5C15.9346 10.4717 15.1503 12.3619 13.7561 13.7561C12.3619 15.1503 10.4717 15.9346 8.5 15.937Z" fill="#707070"/>
<path d="M8.675 2.33997H7.354V9.22197L11.51 13.379L12.444 12.445L8.675 8.67597V2.33997Z" fill="#707070"/>
</svg>
