<svg width="69" height="97" viewBox="0 0 69 97" fill="none" xmlns="http://www.w3.org/2000/svg">
<path d="M17.3 83.275C15.4833 83.275 14.0417 82.9583 12.975 82.325C11.925 81.675 11.1667 80.7 10.7 79.4C10.25 78.1 10.025 76.475 10.025 74.525C10.025 72.5583 10.25 70.9167 10.7 69.6C11.1667 68.2833 11.925 67.2917 12.975 66.625C14.0417 65.9583 15.4833 65.625 17.3 65.625C19.1167 65.625 20.55 65.9583 21.6 66.625C22.6667 67.2917 23.425 68.2833 23.875 69.6C24.3417 70.9167 24.575 72.5583 24.575 74.525C24.575 76.5083 24.3417 78.15 23.875 79.45C23.425 80.75 22.6667 81.7167 21.6 82.35C20.55 82.9667 19.1167 83.275 17.3 83.275ZM17.3 80.375C18.35 80.375 19.1417 80.1667 19.675 79.75C20.225 79.3167 20.5917 78.6667 20.775 77.8C20.9583 76.9167 21.05 75.825 21.05 74.525C21.05 73.225 20.95 72.1333 20.75 71.25C20.5667 70.35 20.2083 69.675 19.675 69.225C19.1417 68.7583 18.35 68.525 17.3 68.525C16.2667 68.525 15.475 68.7583 14.925 69.225C14.3917 69.675 14.025 70.35 13.825 71.25C13.625 72.1333 13.525 73.225 13.525 74.525C13.525 75.8083 13.6167 76.8833 13.8 77.75C14 78.6167 14.3667 79.275 14.9 79.725C15.45 80.1583 16.25 80.375 17.3 80.375ZM26.9766 83V65.325H30.3016V75.175L31.7766 75.125L34.3766 70.45H37.8516L34.6766 76.35L38.0266 83H34.5266L31.8266 78.025L30.3016 78.1V83H26.9766ZM39.7719 83V65.325H43.0969V83H39.7719ZM49.2213 83.275C47.9213 83.275 46.938 82.95 46.2713 82.3C45.6213 81.6333 45.2963 80.6333 45.2963 79.3C45.2963 78.3667 45.463 77.6417 45.7963 77.125C46.1296 76.5917 46.6213 76.2083 47.2713 75.975C47.938 75.725 48.7463 75.575 49.6963 75.525L52.7463 75.25V74.5C52.7463 73.9 52.5963 73.4833 52.2963 73.25C51.9963 73 51.5546 72.875 50.9713 72.875C50.5046 72.875 49.963 72.8917 49.3463 72.925C48.7463 72.9583 48.1463 73 47.5463 73.05C46.963 73.1 46.4546 73.15 46.0213 73.2L45.9213 70.85C46.3546 70.75 46.8713 70.65 47.4713 70.55C48.088 70.4333 48.7296 70.3417 49.3963 70.275C50.063 70.2083 50.6796 70.175 51.2463 70.175C52.313 70.175 53.2046 70.3083 53.9213 70.575C54.638 70.8417 55.1796 71.2833 55.5463 71.9C55.913 72.5 56.0963 73.3167 56.0963 74.35V80.075C56.1296 80.3083 56.2546 80.4917 56.4713 80.625C56.688 80.7417 56.938 80.825 57.2213 80.875L57.1463 83.175C56.7463 83.1917 56.3546 83.2 55.9713 83.2C55.588 83.2 55.263 83.175 54.9963 83.125C54.613 83.075 54.2796 82.975 53.9963 82.825C53.7296 82.675 53.513 82.5167 53.3463 82.35C53.0796 82.4667 52.7213 82.6 52.2713 82.75C51.8213 82.9 51.3296 83.025 50.7963 83.125C50.2796 83.225 49.7546 83.275 49.2213 83.275ZM50.0213 80.8C50.338 80.8 50.6713 80.7667 51.0213 80.7C51.3713 80.6333 51.6963 80.5583 51.9963 80.475C52.313 80.375 52.563 80.2833 52.7463 80.2V77.325L50.1963 77.55C49.6463 77.6 49.2463 77.7667 48.9963 78.05C48.763 78.3167 48.6463 78.7 48.6463 79.2C48.6463 79.7 48.7546 80.0917 48.9713 80.375C49.2046 80.6583 49.5546 80.8 50.0213 80.8Z" fill="#F93481"/>
<path d="M68.593 25.919C67.246 17.84 59.841 13.128 52.436 12.456C48.125 12.0251 43.7713 12.4825 39.644 13.8C44.357 10.434 50.753 10.768 50.753 10.768C50.753 10.768 48.732 0 31.899 0C15.742 0 14.059 13.127 14.059 13.127C11.365 13.127 -1.42701 18.513 1.26799 30.627C3.96299 42.741 17.425 42.747 17.425 42.747V55.543C20.1062 55.7703 22.7673 56.1931 25.387 56.808C24.474 50.253 23.432 43.681 22.737 41.974C22.3285 40.6484 21.5608 39.4619 20.519 38.546C19.4556 37.113 18.8357 35.3997 18.736 33.618L17.549 22.4C17.549 22.4 17.732 22.019 17.914 22.334L19.814 32.19C19.814 32.19 19.914 32.719 20.29 32.65C20.666 32.581 20.473 32.243 20.427 32.102C20.381 31.961 18.861 22.142 18.861 22.142C18.861 22.142 19.033 21.688 19.226 22.053L21.241 31.762C21.241 31.762 21.314 32.37 21.732 32.293C21.732 32.293 21.96 32.152 21.789 31.536C21.618 30.92 20.035 21.895 20.035 21.895C20.035 21.895 20.157 21.519 20.378 21.76L22.678 31.518C22.678 31.518 22.76 32.066 23.118 31.996C23.476 31.926 23.301 31.478 23.273 31.242C23.245 31.006 21.386 21.648 21.386 21.648C21.386 21.648 21.516 21.307 21.718 21.531L24.175 30.11C24.175 30.11 25.338 34.43 25.002 36.553C24.8718 37.1238 24.6953 37.683 24.474 38.225C23.9312 39.2829 23.7553 40.4912 23.974 41.66C24.063 42.151 25.905 49.943 27.674 57.407C28.895 57.752 30.147 58.157 31.381 58.635C31.81 50.496 32.153 41.468 32.153 41.468C30.758 27.527 33.086 21.894 34.553 20.549C35.966 19.249 36.253 20.62 36.253 20.62L35.044 39.913C35.044 39.913 34.781 41.34 34.701 41.685C34.177 43.915 34.142 52.585 34.215 59.885C34.456 60.007 34.695 60.133 34.931 60.261C35.9852 60.8406 37.1382 61.2187 38.331 61.376C40.331 55.513 42.575 48.825 43.352 46.226C44.852 41.196 43.535 39.943 43.535 39.943C40.797 34.761 44.475 29.382 44.995 28.349C45.515 27.316 51.548 17.786 52.856 27.67C54.156 37.455 48.187 41.07 48.021 41.135C45.546 42.075 45.101 44.86 44.566 46.793C44.266 47.868 42.631 54.91 41.136 61.377C46.236 60.727 50.414 56.898 50.414 56.898L51.091 42.75C61.863 44.77 69.94 34 68.593 25.919Z" fill="#F93481"/>
</svg>
