<svg width="44" height="44" viewBox="0 0 44 44" fill="none" xmlns="http://www.w3.org/2000/svg">
<path d="M19.377 2.58158e-08C15.5445 -0.000197758 11.7981 1.13608 8.61141 3.26513C5.42475 5.39418 2.941 8.42038 1.47424 11.9611C0.00749183 15.5017 -0.37638 19.3978 0.371173 23.1567C1.11873 26.9155 2.96413 30.3682 5.67401 33.0783C8.38389 35.7883 11.8365 37.6339 15.5953 38.3816C19.3541 39.1294 23.2503 38.7457 26.791 37.2791C30.3317 35.8125 33.3581 33.3289 35.4873 30.1424C37.6165 26.9558 38.753 23.2095 38.753 19.377C38.7469 14.2399 36.7036 9.31501 33.0712 5.68247C29.4389 2.04992 24.514 0.00635155 19.377 2.58158e-08ZM19.377 35.176C16.252 35.176 13.1973 34.2493 10.599 32.5132C8.00067 30.7771 5.97554 28.3095 4.77967 25.4224C3.58381 22.5353 3.27092 19.3585 3.88056 16.2936C4.49021 13.2287 5.99501 10.4134 8.20468 8.20371C10.4144 5.99404 13.2296 4.48924 16.2945 3.87959C19.3594 3.26995 22.5363 3.58284 25.4234 4.7787C28.3104 5.97457 30.7781 7.99969 32.5142 10.598C34.2503 13.1963 35.177 16.2511 35.177 19.376C35.1725 23.565 33.5064 27.5812 30.5443 30.5433C27.5822 33.5054 23.566 35.1715 19.377 35.176Z" fill="white"/>
<path d="M43.476 40.947L33.222 30.692C32.8866 30.3566 32.4318 30.1682 31.9575 30.1682C31.4832 30.1682 31.0284 30.3566 30.693 30.692C30.3576 31.0274 30.1692 31.4822 30.1692 31.9565C30.1692 32.4308 30.3576 32.8856 30.693 33.221L40.948 43.476C41.2833 43.8114 41.7382 43.9998 42.2125 43.9998C42.6868 43.9998 43.1416 43.8114 43.477 43.476C43.8124 43.1406 44.0008 42.6858 44.0008 42.2115C44.0008 41.7372 43.8124 41.2824 43.477 40.947H43.476Z" fill="white"/>
</svg>
