<svg width="17" height="18" viewBox="0 0 17 18" fill="none" xmlns="http://www.w3.org/2000/svg">
<path d="M14.51 11.99C13.6014 11.0779 12.4967 10.385 11.28 9.96398C12.1449 9.37041 12.7972 8.51563 13.1414 7.52469C13.4856 6.53375 13.5037 5.45866 13.193 4.45672C12.8822 3.45478 12.259 2.57856 11.4145 1.95628C10.57 1.33399 9.54852 0.998291 8.4995 0.998291C7.45048 0.998291 6.42899 1.33399 5.58448 1.95628C4.73996 2.57856 4.11675 3.45478 3.80603 4.45672C3.4953 5.45866 3.51336 6.53375 3.85756 7.52469C4.20177 8.51563 4.85406 9.37041 5.719 9.96398C4.04949 10.5441 2.60192 11.6294 1.57712 13.0694C0.552329 14.5093 0.00112923 16.2326 0 18H1.328C1.328 17.0581 1.51351 16.1255 1.87394 15.2554C2.23436 14.3852 2.76265 13.5946 3.42863 12.9286C4.09461 12.2626 4.88525 11.7343 5.75539 11.3739C6.62554 11.0135 7.55816 10.828 8.5 10.828C9.44184 10.828 10.3745 11.0135 11.2446 11.3739C12.1148 11.7343 12.9054 12.2626 13.5714 12.9286C14.2374 13.5946 14.7656 14.3852 15.1261 15.2554C15.4865 16.1255 15.672 17.0581 15.672 18H17C17.0029 16.8833 16.7843 15.7772 16.3569 14.7456C15.9295 13.714 15.3018 12.7774 14.51 11.99ZM8.5 9.49998C7.79076 9.49998 7.09744 9.28967 6.50773 8.89563C5.91801 8.5016 5.45838 7.94154 5.18697 7.28629C4.91555 6.63103 4.84454 5.91001 4.9829 5.21439C5.12127 4.51877 5.4628 3.87981 5.96431 3.3783C6.46583 2.87679 7.10479 2.53525 7.80041 2.39689C8.49602 2.25852 9.21705 2.32954 9.8723 2.60095C10.5276 2.87237 11.0876 3.33199 11.4817 3.92171C11.8757 4.51142 12.086 5.20474 12.086 5.91398C12.0849 6.86473 11.7068 7.77622 11.0345 8.4485C10.3622 9.12078 9.45074 9.49893 8.5 9.49998Z" fill="#707070"/>
</svg>
